<?xml version="1.0" standalone="no"?>
<!DOCTYPE svg PUBLIC "-//W3C//DTD SVG 20010904//EN"
 "http://www.w3.org/TR/2001/REC-SVG-20010904/DTD/svg10.dtd">
<svg version="1.0" xmlns="http://www.w3.org/2000/svg"
 width="315.000000pt" height="315.000000pt" viewBox="0 0 315.000000 315.000000"
 preserveAspectRatio="xMidYMid meet">
<metadata>
Created by potrace 1.14, written by Peter Selinger 2001-2017
</metadata>
<g transform="translate(0.000000,315.000000) scale(0.100000,-0.100000)"
fill="#000000" stroke="none">
<path d="M247 1993 c-66 -22 -103 -51 -133 -107 -21 -38 -25 -65 -28 -166 -1
-47 -5 -91 -10 -99 -6 -9 -5 -12 1 -8 6 4 10 -24 10 -73 0 -51 -3 -77 -10 -73
-6 4 -7 1 -1 -8 5 -8 9 -72 9 -144 l1 -130 63 -3 c36 -2 69 2 74 7 8 8 8 11 0
11 -12 0 -10 61 3 81 5 8 3 9 -5 4 -10 -6 -11 -3 -2 13 8 15 8 21 -1 24 -8 3
-8 10 1 26 6 12 8 22 4 22 -4 0 -8 16 -9 35 0 18 2 32 6 30 4 -2 7 2 7 10 0 8
-5 15 -10 15 -5 0 -6 8 -2 18 9 20 9 29 2 64 -3 15 -1 30 4 33 5 4 5 13 -1 24
-5 10 -6 21 -2 25 10 10 8 50 -2 58 -6 4 -5 12 3 21 8 10 8 17 2 21 -7 5 -7
15 -1 31 6 16 6 25 -1 25 -6 0 -5 9 2 23 7 12 12 23 11 25 -11 16 30 48 72 56
14 3 26 0 26 -5 0 -6 5 -7 10 -4 6 3 10 1 10 -4 0 -6 3 -10 8 -10 18 3 35 -2
29 -8 -4 -3 -2 -12 3 -18 10 -12 12 -32 9 -126 -1 -26 1 -50 4 -56 3 -5 2 -15
-3 -22 -4 -8 -4 -26 0 -41 5 -18 4 -32 -3 -39 -8 -8 -8 -11 0 -11 6 0 8 -12 6
-27 -2 -16 -4 -35 -3 -43 0 -8 0 -37 0 -63 0 -34 4 -46 12 -41 7 4 8 3 4 -4
-4 -6 0 -26 7 -44 15 -37 82 -110 91 -101 3 4 6 0 6 -7 0 -7 3 -11 6 -7 4 3
21 0 38 -7 45 -19 166 -8 166 15 0 5 6 9 13 9 21 0 69 51 88 95 20 45 29 132
16 153 -5 6 -4 12 1 12 10 0 8 92 -2 109 -4 6 -3 11 1 11 5 0 8 48 7 108 -1
59 3 113 8 120 6 6 7 12 3 12 -4 0 5 10 20 22 31 24 92 29 106 7 5 -8 9 -10 9
-4 0 5 8 -2 17 -15 16 -22 18 -57 18 -345 l0 -320 68 -3 67 -3 1 53 c0 29 0
175 0 323 0 255 -1 272 -21 314 -51 104 -144 148 -267 126 -24 -4 -40 -11 -37
-16 3 -5 -2 -9 -11 -9 -15 0 -95 -76 -93 -89 2 -18 -3 -32 -10 -27 -4 2 -7
-17 -6 -42 0 -26 -3 -52 -8 -59 -5 -6 -5 -14 -1 -16 10 -7 10 -48 -1 -65 -4
-7 -3 -12 2 -12 13 0 10 -33 -3 -42 -7 -5 -7 -8 0 -8 11 0 13 -79 2 -96 -3 -6
-4 -14 0 -18 10 -9 9 -66 -1 -66 -5 0 -4 -6 2 -13 14 -17 -18 -91 -44 -102
-45 -20 -70 -16 -102 15 -18 16 -32 34 -33 38 -1 4 -2 111 -3 237 -2 190 -6
237 -20 268 -9 20 -21 37 -28 37 -6 0 -9 3 -6 6 15 14 -96 86 -119 77 -7 -3
-13 -1 -13 4 0 12 -60 10 -103 -4z"/>
<path d="M1500 2001 c0 -5 -6 -9 -12 -8 -42 1 -68 -4 -63 -13 3 -5 -1 -10 -9
-10 -27 0 -113 -99 -99 -114 3 -3 2 -6 -4 -6 -12 0 -15 -662 -3 -670 5 -3 35
-3 66 0 l58 5 0 317 c1 240 4 320 14 330 6 6 12 18 12 25 0 12 13 17 33 14 4
0 7 3 7 8 0 11 19 9 39 -3 10 -7 12 -5 6 3 -12 20 26 -2 50 -29 18 -20 19 -38
20 -248 0 -125 4 -232 8 -239 4 -6 8 -23 9 -36 1 -14 6 -23 10 -21 4 3 8 -2 8
-10 0 -18 59 -76 78 -76 6 0 12 -4 12 -10 0 -5 11 -10 25 -10 14 0 25 -4 25
-9 0 -10 71 -8 118 3 44 10 132 85 132 114 0 6 4 12 8 12 8 0 13 24 15 70 0
14 5 28 11 32 7 5 7 8 1 8 -8 0 -12 121 -5 140 1 3 1 10 0 15 -5 26 -3 92 4
103 4 7 4 12 -1 12 -4 0 -7 67 -7 150 1 82 -1 151 -5 151 -3 1 -30 2 -59 3
-39 1 -56 -3 -61 -14 -4 -8 -7 -148 -6 -310 1 -275 -6 -357 -27 -344 -4 3 -8
1 -8 -4 0 -11 -48 -31 -72 -30 -10 1 -18 5 -18 10 0 4 -6 8 -14 8 -7 0 -21 11
-30 24 -13 20 -15 63 -16 255 -1 211 -3 234 -22 273 -22 46 -67 93 -99 103
-10 4 -19 10 -19 14 0 4 -15 8 -32 9 -18 1 -43 4 -55 6 -13 3 -23 1 -23 -3z"/>
<path d="M2363 1997 c-3 -4 -10 -6 -16 -4 -36 12 -157 -112 -157 -160 0 -13
-4 -22 -8 -19 -5 3 -8 -15 -8 -40 0 -24 2 -44 5 -44 3 0 7 -14 8 -30 2 -28 29
-77 58 -105 28 -28 76 -55 86 -49 8 5 9 3 4 -6 -6 -10 -4 -12 7 -7 9 3 19 3
23 -1 3 -4 106 -7 228 -7 187 -1 227 -4 252 -18 17 -9 27 -16 22 -17 -4 0 0
-11 8 -24 27 -41 -2 -136 -41 -136 -8 0 -13 -3 -11 -7 3 -5 -141 -7 -319 -7
-178 1 -325 -1 -325 -5 -1 -3 -3 -26 -4 -51 -5 -80 -17 -78 343 -75 174 1 317
3 317 4 0 1 10 4 23 7 13 2 32 13 44 24 12 10 24 17 28 15 4 -2 13 7 20 20 7
14 17 25 22 25 4 0 8 7 8 15 0 8 5 15 12 15 6 0 9 3 5 6 -3 3 0 22 7 42 36
103 -27 236 -131 279 -40 16 -70 19 -180 19 -80 -1 -135 3 -137 9 -3 6 -5 6
-5 -1 -1 -14 -159 -8 -188 7 -13 7 -30 24 -39 38 -20 29 -20 91 -2 103 7 4 10
8 6 8 -19 0 37 42 58 44 13 0 24 3 24 6 0 8 64 5 78 -4 7 -4 12 -3 12 1 0 5
26 7 58 6 31 -2 63 -3 70 -3 18 0 70 0 85 0 6 0 23 1 37 3 14 2 31 -1 38 -6 7
-6 12 -6 12 0 0 6 12 8 28 6 15 -2 33 -4 40 -4 60 3 78 3 87 1 40 -10 45 -1
43 65 -2 50 -6 65 -18 66 -73 6 -613 2 -617 -4z"/>
<path d="M2170 1190 c0 -5 5 -10 11 -10 5 0 7 5 4 10 -3 6 -8 10 -11 10 -2 0
-4 -4 -4 -10z"/>
</g>
</svg>
