<?xml version="1.0" standalone="no"?>
<!DOCTYPE svg PUBLIC "-//W3C//DTD SVG 20010904//EN"
 "http://www.w3.org/TR/2001/REC-SVG-20010904/DTD/svg10.dtd">
<svg version="1.0" xmlns="http://www.w3.org/2000/svg"
 width="600.000000pt" height="600.000000pt" viewBox="0 0 600.000000 600.000000"
 preserveAspectRatio="xMidYMid meet">

<g transform="translate(0.000000,600.000000) scale(0.100000,-0.100000)"
fill="#000000" stroke="none">
<path d="M2040 3671 c-122 -23 -177 -51 -217 -110 -28 -42 -29 -62 -3 -92 l19
-24 -6 37 c-5 33 -1 42 29 72 21 21 54 40 88 50 69 21 83 20 76 -1 -24 -74
-24 -198 -1 -255 10 -26 -10 -23 -85 13 -54 25 -61 27 -45 10 10 -12 43 -33
73 -47 46 -22 75 -27 200 -34 236 -15 311 -12 352 11 27 16 30 19 10 14 -44
-11 -100 -18 -100 -13 0 3 7 25 15 49 18 50 25 148 14 199 -5 19 -6 36 -4 38
4 5 76 -34 101 -55 34 -29 54 -67 56 -107 2 -47 18 -33 25 23 12 85 -78 159
-244 201 -87 23 -282 34 -353 21z m342 -57 c21 -3 41 -11 46 -18 27 -33 21
-229 -9 -277 -9 -16 -63 -17 -250 -5 l-116 8 -11 36 c-19 67 -24 111 -18 157
l7 45 86 0 c84 0 86 0 69 -19 -20 -22 -32 -88 -22 -126 9 -36 53 -75 85 -75
22 1 24 2 9 11 -22 12 -23 58 -2 66 8 3 22 -1 31 -9 12 -13 13 -20 3 -39 -13
-24 -13 -24 8 -5 39 34 41 131 4 172 -14 16 -18 41 -13 87 1 5 13 6 29 3 15
-3 44 -8 64 -12z"/>
<path d="M3702 3670 c-142 -20 -247 -65 -306 -131 -35 -38 -38 -45 -33 -86 6
-58 23 -76 25 -27 2 53 40 104 101 138 29 15 54 26 56 24 1 -1 -1 -25 -5 -53
-8 -54 1 -153 19 -198 6 -16 11 -30 11 -33 0 -8 -49 -4 -76 6 -38 15 -42 5 -5
-14 34 -18 134 -20 354 -7 117 8 145 13 191 35 29 14 61 35 71 46 16 18 9 16
-45 -9 -75 -36 -95 -39 -85 -13 23 58 23 198 0 255 -9 22 5 22 75 1 34 -10 67
-29 88 -50 30 -30 34 -39 29 -72 l-6 -37 19 24 c24 28 25 43 5 80 -39 77 -146
119 -315 126 -58 2 -133 0 -168 -5z m257 -62 c25 -66 20 -232 -8 -275 -7 -12
-293 -34 -335 -26 -34 7 -54 48 -63 133 -7 73 1 85 67 94 27 4 52 11 55 16 3
6 18 10 32 10 25 0 25 -1 9 -19 -20 -22 -32 -87 -22 -124 9 -36 55 -77 85 -77
22 1 24 2 9 11 -22 12 -23 58 -2 66 8 3 22 -1 31 -9 12 -13 13 -20 3 -39 -13
-24 -13 -24 8 -5 39 34 41 131 4 172 -14 16 -18 43 -13 87 1 4 30 7 66 7 59 0
66 -2 74 -22z"/>
<path d="M1267 3308 c11 -50 57 -224 113 -428 68 -248 100 -419 130 -685 41
-371 89 -477 326 -723 l114 -117 -24 -60 c-14 -33 -41 -104 -61 -158 -39 -103
-116 -229 -164 -269 -15 -13 -48 -37 -74 -55 -58 -40 -82 -76 -82 -125 0 -25
-5 -40 -15 -43 -20 -6 -216 -37 -470 -75 -326 -48 -425 -73 -584 -144 -150
-67 -329 -222 -409 -352 -20 -34 -37 -64 -37 -68 0 -3 659 -6 1465 -6 1271 0
1465 2 1465 14 0 37 -43 302 -64 396 -13 58 -39 143 -57 190 -27 71 -42 95
-93 145 -36 36 -103 85 -161 119 -261 152 -345 215 -345 257 0 23 6 22 110
-18 91 -36 264 -78 400 -98 296 -44 653 -3 928 106 40 16 75 29 77 29 9 0 5
-41 -4 -59 -13 -24 -133 -105 -257 -174 -238 -133 -322 -230 -388 -447 -29
-97 -62 -271 -72 -384 l-7 -76 1457 0 1457 0 -52 75 c-106 154 -280 291 -469
368 -161 66 -313 106 -729 192 -253 53 -271 58 -271 81 0 9 -62 80 -139 158
-158 163 -189 215 -227 373 l-23 97 108 106 c262 260 320 390 356 800 23 249
40 326 225 1013 21 78 29 74 -99 52 -86 -15 -128 -31 -56 -20 22 3 66 9 98 14
31 4 57 4 57 0 0 -5 -45 -145 -99 -311 -112 -344 -143 -458 -171 -643 -36
-241 -106 -430 -237 -642 -203 -328 -497 -535 -868 -614 -98 -21 -136 -23
-350 -23 -209 0 -253 3 -342 22 -271 59 -469 166 -664 361 -117 118 -217 259
-299 421 -55 110 -117 313 -134 445 -29 212 -55 313 -169 652 -61 183 -109
334 -107 336 3 3 41 -1 85 -9 90 -15 111 -16 103 -9 -5 5 -170 34 -195 35 -6
0 -9 -9 -6 -22z"/>
<path d="M4515 3249 c-15 -66 -63 -167 -139 -294 -150 -247 -197 -370 -250
-667 -49 -267 -74 -341 -163 -465 -103 -146 -429 -374 -598 -417 -84 -23 -118
-20 -153 9 -36 30 -40 46 -51 187 -14 167 -48 213 -158 213 -112 0 -149 -51
-164 -223 -12 -136 -22 -168 -62 -188 -90 -47 -335 60 -572 250 -212 169 -285
315 -344 689 -34 215 -99 378 -248 630 -37 62 -82 146 -100 187 -18 41 -33 70
-33 64 0 -30 49 -143 133 -307 138 -266 181 -396 212 -639 28 -218 81 -360
186 -500 133 -179 498 -411 656 -418 83 -4 102 0 136 30 42 36 57 85 58 186 1
44 4 89 7 102 7 21 9 19 42 -25 62 -85 117 -84 178 2 l39 55 7 -38 c3 -20 6
-74 6 -120 0 -94 15 -138 55 -170 98 -77 422 51 658 260 127 113 241 282 281
418 9 30 25 125 36 210 32 249 75 373 239 695 86 169 134 295 118 311 -3 3 -8
-9 -12 -27z"/>
<path d="M3131 2398 c-34 -43 -80 -68 -122 -68 -30 0 -47 9 -90 48 -39 34 -48
40 -35 19 23 -34 66 -66 108 -77 41 -12 107 16 139 59 12 17 26 31 30 31 4 0
28 -29 54 -65 46 -65 81 -92 126 -96 50 -4 67 2 111 41 35 30 48 37 56 27 41
-49 178 -346 170 -367 -2 -5 -59 19 -128 52 -142 67 -300 118 -369 118 -26 0
-75 -9 -110 -21 -64 -22 -81 -36 -20 -18 19 5 66 10 104 11 77 2 189 -30 346
-98 70 -30 185 -74 195 -74 4 0 -22 90 -40 139 -21 56 -111 229 -136 259 l-19
23 -40 -29 c-56 -41 -96 -55 -128 -48 -17 4 -59 40 -103 86 l-75 78 -24 -30z"/>
<path d="M2790 2369 c-106 -96 -180 -115 -263 -66 l-45 27 -45 -78 c-47 -82
-88 -179 -107 -252 -6 -25 -13 -53 -16 -62 -5 -16 -1 -16 51 2 30 10 90 35
133 54 42 19 131 51 197 71 121 37 132 38 245 21 26 -4 21 -1 -20 14 -30 10
-78 19 -106 19 -68 1 -252 -58 -376 -120 -54 -27 -100 -49 -103 -49 -3 0 1 12
8 28 8 15 24 61 37 102 19 63 69 176 97 217 7 9 21 6 58 -12 88 -45 144 -29
250 69 33 30 58 55 55 55 -3 0 -25 -18 -50 -40z"/>
</g>
</svg>
